<svg width="1121" height="255" viewBox="0 0 1121 255" fill="none" xmlns="http://www.w3.org/2000/svg">
<path d="M329.424 111V53.496H307.056V43.32H364.176V53.496H341.808V111H329.424ZM371.966 111V40.344H383.966V72.216H382.622C384.094 68.76 386.366 66.136 389.438 64.344C392.51 62.488 396.03 61.56 399.998 61.56C405.758 61.56 410.046 63.192 412.862 66.456C415.678 69.656 417.086 74.552 417.086 81.144V111H405.086V81.72C405.086 77.944 404.35 75.224 402.878 73.56C401.47 71.832 399.198 70.968 396.062 70.968C392.414 70.968 389.47 72.12 387.23 74.424C385.054 76.664 383.966 79.672 383.966 83.448V111H371.966ZM453.233 111.96C445.105 111.96 438.737 109.72 434.129 105.24C429.521 100.76 427.217 94.616 427.217 86.808C427.217 81.752 428.209 77.336 430.193 73.56C432.177 69.784 434.929 66.84 438.449 64.728C442.033 62.616 446.193 61.56 450.929 61.56C455.601 61.56 459.505 62.552 462.641 64.536C465.777 66.52 468.145 69.304 469.745 72.888C471.409 76.472 472.241 80.664 472.241 85.464V88.632H436.913V82.296H463.697L462.065 83.64C462.065 79.16 461.105 75.736 459.185 73.368C457.329 71 454.609 69.816 451.025 69.816C447.057 69.816 443.985 71.224 441.809 74.04C439.697 76.856 438.641 80.792 438.641 85.848V87.096C438.641 92.344 439.921 96.28 442.481 98.904C445.105 101.464 448.785 102.744 453.521 102.744C456.273 102.744 458.833 102.392 461.201 101.688C463.633 100.92 465.937 99.704 468.113 98.04L471.665 106.104C469.361 107.96 466.609 109.4 463.409 110.424C460.209 111.448 456.817 111.96 453.233 111.96Z" fill="#333333"/>
<path d="M483.363 111V43.32H495.747V111H483.363ZM510.644 111V43.32H519.956L559.22 94.104H556.724V43.32H568.244V111H558.932L519.764 60.216H522.164V111H510.644ZM615.753 111.96C608.137 111.96 601.737 110.552 596.553 107.736C591.369 104.92 587.465 100.92 584.841 95.736C582.217 90.552 580.905 84.408 580.905 77.304C580.905 70.136 582.313 63.96 585.129 58.776C587.945 53.528 591.977 49.496 597.225 46.68C602.537 43.8 608.905 42.36 616.329 42.36C621.257 42.36 625.577 43.032 629.289 44.376C633.001 45.656 636.265 47.544 639.081 50.04L634.953 59.64C632.905 58.04 630.953 56.76 629.097 55.8C627.241 54.84 625.321 54.168 623.337 53.784C621.353 53.336 619.049 53.112 616.425 53.112C609.001 53.112 603.369 55.224 599.529 59.448C595.753 63.608 593.865 69.592 593.865 77.4C593.865 85.208 595.657 91.16 599.241 95.256C602.889 99.352 608.585 101.4 616.329 101.4C618.953 101.4 621.577 101.144 624.201 100.632C626.889 100.12 629.513 99.384 632.073 98.424L629.769 103.608V83.352H613.929V74.328H640.041V106.872C636.905 108.472 633.161 109.72 628.809 110.616C624.457 111.512 620.105 111.96 615.753 111.96ZM654.176 111V43.32H699.776V53.016H666.08V71.736H697.568V81.528H666.08V101.208H699.776V111H654.176ZM711.269 111V43.32H720.581L759.845 94.104H757.349V43.32H768.869V111H759.557L720.389 60.216H722.789V111H711.269ZM783.738 111V43.32H796.122V111H783.738ZM808.811 77.112C808.811 70.008 810.091 63.864 812.651 58.68C815.275 53.496 819.019 49.496 823.883 46.68C828.747 43.8 834.539 42.36 841.259 42.36C847.915 42.36 853.675 43.8 858.539 46.68C863.403 49.496 867.147 53.496 869.771 58.68C872.459 63.864 873.803 69.976 873.803 77.016C873.803 84.12 872.459 90.296 869.771 95.544C867.147 100.728 863.403 104.76 858.539 107.64C853.675 110.52 847.915 111.96 841.259 111.96C834.539 111.96 828.747 110.52 823.883 107.64C819.083 104.76 815.371 100.728 812.747 95.544C810.123 90.296 808.811 84.152 808.811 77.112ZM821.771 77.112C821.771 84.728 823.403 90.68 826.667 94.968C829.931 99.256 834.795 101.4 841.259 101.4C847.531 101.4 852.363 99.256 855.755 94.968C859.147 90.68 860.843 84.728 860.843 77.112C860.843 69.432 859.147 63.48 855.755 59.256C852.427 55.032 847.595 52.92 841.259 52.92C834.795 52.92 829.931 55.032 826.667 59.256C823.403 63.48 821.771 69.432 821.771 77.112ZM914.806 111.96C905.142 111.96 897.942 109.56 893.206 104.76C888.534 99.896 886.198 92.728 886.198 83.256V43.32H898.582V83.16C898.582 89.176 899.862 93.72 902.422 96.792C905.046 99.864 909.174 101.4 914.806 101.4C920.182 101.4 924.214 99.864 926.902 96.792C929.654 93.72 931.03 89.176 931.03 83.16V43.32H943.222V83.256C943.222 92.728 940.822 99.896 936.022 104.76C931.286 109.56 924.214 111.96 914.806 111.96ZM981.26 111.96C975.82 111.96 970.796 111.288 966.188 109.944C961.644 108.536 957.74 106.616 954.476 104.184L958.316 94.488C960.492 96.024 962.764 97.336 965.132 98.424C967.5 99.448 970.028 100.248 972.716 100.824C975.404 101.336 978.252 101.592 981.26 101.592C986.316 101.592 989.964 100.76 992.204 99.096C994.444 97.432 995.564 95.256 995.564 92.568C995.564 90.2 994.796 88.408 993.26 87.192C991.724 85.912 988.972 84.856 985.004 84.024L974.156 81.816C967.948 80.536 963.308 78.392 960.236 75.384C957.164 72.376 955.628 68.344 955.628 63.288C955.628 59.064 956.748 55.384 958.988 52.248C961.228 49.112 964.364 46.68 968.396 44.952C972.428 43.224 977.132 42.36 982.508 42.36C987.308 42.36 991.756 43.064 995.852 44.472C999.948 45.816 1003.37 47.768 1006.12 50.328L1002.28 59.544C999.532 57.24 996.524 55.544 993.26 54.456C989.996 53.304 986.348 52.728 982.316 52.728C977.772 52.728 974.22 53.624 971.66 55.416C969.164 57.144 967.916 59.544 967.916 62.616C967.916 64.984 968.684 66.872 970.22 68.28C971.82 69.688 974.508 70.776 978.284 71.544L989.036 73.656C995.436 74.936 1000.17 77.048 1003.24 79.992C1006.32 82.872 1007.85 86.776 1007.85 91.704C1007.85 95.736 1006.76 99.288 1004.59 102.36C1002.41 105.368 999.34 107.736 995.372 109.464C991.404 111.128 986.7 111.96 981.26 111.96Z" fill="#00ACC1"/>
<path d="M329.424 231V173.496H307.056V163.32H364.176V173.496H341.808V231H329.424ZM387.89 231.96C379.762 231.96 373.394 229.72 368.786 225.24C364.178 220.76 361.874 214.616 361.874 206.808C361.874 201.752 362.866 197.336 364.85 193.56C366.834 189.784 369.586 186.84 373.106 184.728C376.69 182.616 380.85 181.56 385.586 181.56C390.258 181.56 394.162 182.552 397.298 184.536C400.434 186.52 402.802 189.304 404.402 192.888C406.066 196.472 406.898 200.664 406.898 205.464V208.632H371.57V202.296H398.354L396.722 203.64C396.722 199.16 395.762 195.736 393.842 193.368C391.986 191 389.266 189.816 385.682 189.816C381.714 189.816 378.642 191.224 376.466 194.04C374.354 196.856 373.298 200.792 373.298 205.848V207.096C373.298 212.344 374.578 216.28 377.138 218.904C379.762 221.464 383.442 222.744 388.178 222.744C390.93 222.744 393.49 222.392 395.858 221.688C398.29 220.92 400.594 219.704 402.77 218.04L406.322 226.104C404.018 227.96 401.266 229.4 398.066 230.424C394.866 231.448 391.474 231.96 387.89 231.96ZM439.331 231.96C434.339 231.96 429.955 230.936 426.179 228.888C422.467 226.84 419.587 223.928 417.539 220.152C415.491 216.312 414.467 211.768 414.467 206.52C414.467 201.272 415.491 196.792 417.539 193.08C419.651 189.368 422.563 186.52 426.275 184.536C429.987 182.552 434.339 181.56 439.331 181.56C442.531 181.56 445.635 182.072 448.643 183.096C451.715 184.056 454.211 185.464 456.131 187.32L452.483 195.672C450.755 194.072 448.803 192.888 446.627 192.12C444.515 191.288 442.435 190.872 440.387 190.872C436.099 190.872 432.739 192.216 430.307 194.904C427.939 197.592 426.755 201.496 426.755 206.616C426.755 211.736 427.939 215.672 430.307 218.424C432.739 221.176 436.099 222.552 440.387 222.552C442.371 222.552 444.419 222.168 446.531 221.4C448.707 220.632 450.691 219.448 452.483 217.848L456.131 226.104C454.147 227.96 451.619 229.4 448.547 230.424C445.539 231.448 442.467 231.96 439.331 231.96ZM465.434 231V160.344H477.434V192.216H476.09C477.562 188.76 479.834 186.136 482.906 184.344C485.978 182.488 489.498 181.56 493.466 181.56C499.226 181.56 503.514 183.192 506.33 186.456C509.146 189.656 510.554 194.552 510.554 201.144V231H498.554V201.72C498.554 197.944 497.818 195.224 496.346 193.56C494.938 191.832 492.666 190.968 489.53 190.968C485.882 190.968 482.938 192.12 480.698 194.424C478.522 196.664 477.434 199.672 477.434 203.448V231H465.434Z" fill="black"/>
<ellipse cx="114" cy="58.5" rx="10" ry="8.5" fill="white"/>
<path d="M246.5 139.5C246.5 202.426 191.467 253.5 123.5 253.5C55.5327 253.5 0.5 202.426 0.5 139.5C0.5 76.5745 55.5327 25.5 123.5 25.5C191.467 25.5 246.5 76.5745 246.5 139.5Z" fill="#00ACC1" stroke="white"/>
<rect x="54" y="59" width="142" height="19" fill="white"/>
<rect x="53" y="211" width="142" height="19" fill="white"/>
<rect x="109" y="69" width="30" height="151" fill="white"/>
<rect x="23" y="100" width="75" height="18" fill="white"/>
<rect x="77" y="118" width="21" height="86" fill="white"/>
<path d="M148 102H223V120H148V102Z" fill="white"/>
<rect x="148" y="120" width="21" height="86" fill="white"/>
<rect x="16" y="159" width="225" height="6" fill="#00ACC1"/>
</svg>
