<svg width="1352" height="742" viewBox="0 0 1352 742" fill="none" xmlns="http://www.w3.org/2000/svg">
<path d="M1222.13 200H1279.13V169.5C1279.13 161.941 1276.13 154.692 1270.79 149.347C1265.44 144.003 1258.19 141 1250.63 141C1243.08 141 1235.83 144.003 1230.48 149.347C1225.14 154.692 1222.13 161.941 1222.13 169.5V200Z" fill="#2F2E41"/>
<path d="M1196.69 539.344H1184.43L1178.6 492.052H1196.69L1196.69 539.344Z" fill="#FFB6B6"/>
<path d="M1199.82 535.341H1175.67C1171.59 535.341 1167.68 536.962 1164.79 539.847C1161.91 542.733 1160.29 546.646 1160.29 550.726V551.226H1199.82V535.341Z" fill="#2F2E41"/>
<path d="M1343.24 522.983L1332.57 529.01L1304.24 490.699L1320 481.804L1343.24 522.983Z" fill="#FFB6B6"/>
<path d="M1344 517.96L1322.97 529.826C1319.42 531.832 1316.81 535.168 1315.71 539.099C1314.62 543.031 1315.13 547.235 1317.14 550.789L1317.38 551.224L1351.81 531.791L1344 517.96Z" fill="#2F2E41"/>
<path d="M1264.89 326.673L1265.83 331.403C1265.83 331.403 1268.67 334.241 1267.25 335.66C1265.83 337.079 1266.31 343.702 1266.31 343.702C1267.1 355.778 1282.88 423.638 1285.7 436.891C1285.7 436.891 1307.46 451.082 1324.49 478.991C1341.52 506.9 1341.99 513.996 1341.99 513.996L1323.07 522.039L1275.77 464.801C1275.77 464.801 1262.53 456.759 1257.8 449.664C1253.07 442.569 1223.73 369.246 1223.73 369.246L1207.17 445.879C1207.17 445.879 1208.12 473.788 1203.86 491.764C1201.24 503.108 1199.66 514.666 1199.13 526.296L1176.9 523.931C1176.9 523.931 1178.32 456.759 1180.68 449.663C1180.68 449.663 1170.75 367.827 1190.62 335.187L1206.63 292.5L1222.31 286.464L1264.89 326.673Z" fill="#2F2E41"/>
<path d="M1250.93 148.456C1221.08 148.966 1221.09 193.363 1250.93 193.868C1280.77 193.358 1280.77 148.961 1250.93 148.456Z" fill="#FFB8B8"/>
<path d="M1227.96 169.984H1233.03L1234.41 166.53L1233.72 169.984H1261.47L1260.57 162.757L1267.31 169.984H1274.04V166.068C1274.04 163.043 1273.44 160.046 1272.29 157.25C1271.13 154.455 1269.44 151.914 1267.3 149.773C1265.16 147.632 1262.62 145.933 1259.83 144.774C1257.04 143.614 1254.04 143.016 1251.01 143.014C1247.99 143.012 1244.99 143.605 1242.2 144.761C1239.4 145.917 1236.86 147.612 1234.72 149.75C1232.58 151.888 1230.88 154.426 1229.72 157.22C1228.56 160.015 1227.96 163.01 1227.96 166.035V166.068L1227.96 169.984Z" fill="#2F2E41"/>
<path d="M1220.15 207.126L1276.55 207.583L1264.63 328.5C1264.63 328.5 1198.67 325.019 1198.63 304.886L1204.81 286.995L1220.15 207.126Z" fill="#3F3D56"/>
<path d="M1278.97 340.189C1278.11 339.127 1277.48 337.888 1277.15 336.559C1276.81 335.23 1276.77 333.844 1277.03 332.498C1277.28 331.151 1277.83 329.878 1278.64 328.767C1279.44 327.656 1280.48 326.734 1281.67 326.067L1279.22 304.78L1291.8 300.135L1294.83 330.246C1295.82 332.331 1296 334.704 1295.35 336.915C1294.7 339.127 1293.26 341.023 1291.31 342.248C1289.36 343.472 1287.03 343.938 1284.75 343.559C1282.48 343.18 1280.42 341.981 1278.97 340.189Z" fill="#FFB6B6"/>
<path d="M1269.13 218L1276.55 207.627C1276.55 207.627 1281.63 206.5 1287.63 213.5C1293.63 220.5 1297.13 308 1297.13 308L1275.13 313L1262.13 251L1269.13 218Z" fill="#3F3D56"/>
<path d="M1144.82 312.888L1146.45 390.625L1196.78 417.22L1288.43 400.854L1290.68 320.048L1232.58 299.59L1144.82 312.888Z" fill="white"/>
<path d="M1196.65 418.059L1145.66 391.115L1144 312.199L1232.66 298.766L1232.85 298.832L1291.5 319.484L1289.21 401.53L1196.65 418.059ZM1147.25 390.135L1196.91 416.38L1287.64 400.178L1289.86 320.611L1232.5 300.415L1145.64 313.576L1147.25 390.135Z" fill="#CACACA"/>
<path d="M1195.66 333.965L1195.46 333.887L1144.52 313.634L1145.11 312.141L1195.86 332.315L1290.57 319.252L1290.79 320.844L1195.66 333.965Z" fill="#CACACA"/>
<path d="M1196.56 333.13L1194.95 333.15L1195.98 417.229L1197.58 417.21L1196.56 333.13Z" fill="#CACACA"/>
<path d="M1189.22 329.941L1170.86 322.497L1259.25 308.412L1277.61 315.855L1189.22 329.941Z" fill="#CACACA"/>
<path d="M1145.14 335.438L1144.5 336.915L1165.8 346.084L1166.43 344.608L1145.14 335.438Z" fill="#CACACA"/>
<path d="M1154.78 361.958L1154.14 363.435L1175.44 372.604L1176.08 371.128L1154.78 361.958Z" fill="#6C63FF"/>
<path d="M1173.35 325.742C1174.59 325.159 1175.69 324.312 1176.57 323.259C1177.45 322.207 1178.08 320.974 1178.43 319.649C1178.78 318.324 1178.84 316.938 1178.6 315.589C1178.35 314.24 1177.82 312.961 1177.02 311.842L1188.45 293.712L1179.12 284.084L1163.35 309.913C1161.56 311.367 1160.36 313.428 1159.99 315.705C1159.62 317.982 1160.09 320.318 1161.32 322.268C1162.55 324.219 1164.46 325.651 1166.68 326.291C1168.89 326.931 1171.27 326.736 1173.35 325.743V325.742Z" fill="#FFB6B6"/>
<path d="M917.818 557.122L919.454 634.859L969.779 661.454L1061.43 645.088L1063.68 564.282L1005.58 543.824L917.818 557.122Z" fill="white"/>
<path d="M969.649 662.293L918.661 635.349L917 556.433L1005.66 543L1005.85 543.066L1064.5 563.718L1062.21 645.764L969.649 662.293ZM920.248 634.369L969.911 660.614L1060.64 644.412L1062.86 564.845L1005.5 544.649L918.637 557.81L920.248 634.369Z" fill="#CACACA"/>
<path d="M968.656 578.199L968.459 578.121L917.521 557.868L918.114 556.375L968.856 576.549L1063.57 563.486L1063.79 565.078L968.656 578.199Z" fill="#CACACA"/>
<path d="M969.56 577.365L967.953 577.384L968.976 661.464L970.583 661.444L969.56 577.365Z" fill="#CACACA"/>
<path d="M957.771 572.345L943.857 566.731L1032.25 552.646L1046.17 558.26L957.771 572.345Z" fill="#CACACA"/>
<path d="M918.136 579.673L917.5 581.149L938.796 590.318L939.432 588.842L918.136 579.673Z" fill="#CACACA"/>
<path d="M927.78 606.193L927.145 607.669L948.441 616.838L949.077 615.362L927.78 606.193Z" fill="#6C63FF"/>
<path d="M1005.25 567.78L1007.15 658.021L1065.57 688.893L1171.95 669.895L1174.57 576.092L1107.12 552.344L1005.25 567.78Z" fill="#6C63FF"/>
<path d="M1065.41 689.868L1006.23 658.589L1004.3 566.981L1107.21 551.387L1107.43 551.464L1175.52 575.438L1172.87 670.68L1065.41 689.868ZM1008.07 657.452L1065.72 687.918L1171.04 669.11L1173.62 576.746L1107.03 553.301L1006.2 568.58L1008.07 657.452Z" fill="#3F3D56"/>
<path d="M1064.26 592.248L1064.03 592.157L1004.9 568.647L1005.59 566.913L1064.49 590.332L1174.44 575.168L1174.69 577.016L1064.26 592.248Z" fill="#3F3D56"/>
<path d="M1065.31 591.279L1063.45 591.302L1064.63 688.904L1066.5 688.882L1065.31 591.279Z" fill="#3F3D56"/>
<path d="M1052.57 585.495L1035.47 578.936L1138.09 562.585L1155.18 569.144L1052.57 585.495Z" fill="#3F3D56"/>
<path d="M1005.61 593.958L1004.88 595.672L1029.6 606.316L1030.34 604.602L1005.61 593.958Z" fill="#3F3D56"/>
<path d="M1016.81 624.744L1016.07 626.457L1040.79 637.101L1041.53 635.388L1016.81 624.744Z" fill="white"/>
<path d="M1089 20.365H444.275V433.275H1089V20.365Z" fill="#E6E6E6"/>
<path d="M1070.56 72.154H462.711V408.847H1070.56V72.154Z" fill="white"/>
<path d="M1088.72 20H444V47.39H1088.72V20Z" fill="#6C63FF"/>
<path d="M464.355 39.081C467.159 39.081 469.432 36.808 469.432 34.004C469.432 31.2001 467.159 28.927 464.355 28.927C461.551 28.927 459.278 31.2001 459.278 34.004C459.278 36.808 461.551 39.081 464.355 39.081Z" fill="white"/>
<path d="M483.624 39.081C486.428 39.081 488.701 36.808 488.701 34.004C488.701 31.2001 486.428 28.927 483.624 28.927C480.82 28.927 478.547 31.2001 478.547 34.004C478.547 36.808 480.82 39.081 483.624 39.081Z" fill="white"/>
<path d="M502.893 39.081C505.697 39.081 507.97 36.808 507.97 34.004C507.97 31.2001 505.697 28.927 502.893 28.927C500.089 28.927 497.816 31.2001 497.816 34.004C497.816 36.808 500.089 39.081 502.893 39.081Z" fill="white"/>
<path d="M656.387 99.848H537.5V228.83H656.387V99.848Z" fill="#E6E6E6"/>
<path d="M826.08 99.848H707.193V228.83H826.08V99.848Z" fill="#E6E6E6"/>
<path d="M995.772 99.848H876.885V228.83H995.772V99.848Z" fill="#E6E6E6"/>
<path d="M656.387 252.176H537.5V381.158H656.387V252.176Z" fill="#E6E6E6"/>
<path d="M826.08 252.176H707.193V381.158H826.08V252.176Z" fill="#E6E6E6"/>
<path d="M995.772 252.176H876.885V381.158H995.772V252.176Z" fill="#E6E6E6"/>
<path d="M735.929 285.325L757.651 276.737L760.177 319.676C760.177 319.676 764.723 332.81 763.208 337.862C763.208 337.862 764.218 346.45 761.692 346.955C759.166 347.46 752.092 348.471 751.592 347.965C751.092 347.459 751.087 345.944 751.087 345.944C751.087 345.944 746.035 349.48 745.53 353.521C745.53 353.521 724.313 360.088 723.808 354.026C723.303 347.964 734.416 342.912 734.416 342.912L743.004 329.778L735.929 285.325Z" fill="white"/>
<path d="M781.9 285.325L803.619 276.737L806.145 319.676C806.145 319.676 810.691 332.81 809.176 337.862C809.176 337.862 810.186 346.45 807.66 346.955C805.134 347.46 798.06 348.471 797.56 347.965C797.06 347.459 797.055 345.944 797.055 345.944C797.055 345.944 792.003 349.48 791.498 353.521C791.498 353.521 770.281 360.088 769.776 354.026C769.271 347.964 780.384 342.912 780.384 342.912L788.972 329.778L781.9 285.325Z" fill="white"/>
<path d="M784.022 119.51C784.022 119.51 779.397 132.434 784.756 138.262L780.288 153.615C780.288 153.615 796.162 201.237 791.627 207.889C791.627 207.889 774.695 216.355 740.827 204.865L754.584 151.498L752.619 128.972L755.34 118.389L761.387 117.789C761.387 117.789 757.759 131.395 764.411 133.512C771.063 135.629 777.552 118.129 777.552 118.129L784.022 119.51Z" fill="#3F3D56"/>
<path d="M570.421 202.937L576.258 205.325L604.116 168.712L612.871 211.692L618.708 210.631C622.452 173.576 625.508 135.781 621.759 117.905L600.136 116.976L590.32 148.287L585.544 169.512L570.421 202.937Z" fill="white"/>
<path d="M924.678 117.612C924.678 117.612 916.712 128.686 917.101 133.155C917.49 137.624 922.541 210.482 922.541 210.482L934.393 211.065L930.893 158.607L933.807 144.424L940.996 210.482L955.568 210.871L942.551 125.19L940.025 117.613L924.678 117.612Z" fill="white"/>
<path d="M969.7 296.018C967.585 293.48 963.949 292.108 960.458 291.366C960.558 291.049 949.84 288.834 949.658 289.29L945.617 286.071L933.2 292.518L926.223 287.768L922.982 288.918C923.114 288.346 912.921 290.112 912.921 290.112C910.974 290.182 908.487 290.304 905.703 290.518C895.954 291.268 895.203 316.518 895.203 316.518C899.689 314.683 904.471 313.682 909.316 313.563L911.951 343.763C925.504 342.601 939.718 343.953 954.451 347.263L961.36 323.523L977.449 317.266C977.449 317.266 974.7 302.017 969.7 296.018Z" fill="#3F3D56"/>
<path d="M624.441 281.637C622.698 279.546 619.703 278.415 616.826 277.804C616.912 277.542 608.077 275.718 607.926 276.094L604.596 273.442L594.367 278.754L588.618 274.841L585.948 275.789C586.057 275.318 577.658 276.772 577.658 276.772C576.058 276.83 574.004 276.93 571.711 277.107C563.678 277.725 563.06 298.528 563.06 298.528C566.756 297.016 570.696 296.191 574.689 296.093L576.86 357.007C588.027 356.049 599.739 357.164 611.875 359.891L617.567 304.301L630.824 299.146C630.824 299.146 628.56 286.582 624.441 281.637Z" fill="white"/>
<path d="M1227.7 213.541L1219.51 208.149C1219.51 208.149 1213.2 209.565 1206.48 222.483C1199.77 235.401 1172.68 293.155 1172.68 293.155L1183.82 304.455L1213.52 259.146L1227.7 213.541Z" fill="#3F3D56"/>
<g clip-path="url(#clip0_167_126)">
<path d="M365.896 174.38H361.864V63.9273C361.864 55.5322 360.211 47.2193 356.998 39.4633C353.785 31.7073 349.077 24.66 343.14 18.7238C337.204 12.7876 330.157 8.07875 322.401 4.86612C314.645 1.65348 306.332 -2.62641e-05 297.937 3.12895e-10H63.9274C55.5323 -2.62641e-05 47.2195 1.65348 39.4634 4.86612C31.7074 8.07876 24.6601 12.7876 18.7239 18.7238C12.7877 24.66 8.0788 31.7073 4.86615 39.4633C1.6535 47.2194 -1.31322e-05 55.5322 0 63.9273V669.881C-7.87929e-06 678.276 1.65351 686.589 4.86617 694.345C8.07882 702.101 12.7877 709.148 18.7239 715.084C24.6601 721.021 31.7074 725.729 39.4634 728.942C47.2195 732.155 55.5323 733.808 63.9274 733.808H297.937C306.332 733.808 314.645 732.155 322.401 728.942C330.157 725.729 337.204 721.021 343.14 715.084C349.077 709.148 353.785 702.101 356.998 694.345C360.211 686.589 361.864 678.276 361.864 669.881V253.003H365.896V174.38Z" fill="#E6E6E6"/>
<path d="M300.516 16.6317H269.97C271.375 20.0756 271.911 23.8122 271.532 27.5122C271.152 31.2122 269.869 34.762 267.794 37.8491C265.719 40.9361 262.917 43.4656 259.635 45.2147C256.352 46.9637 252.69 47.8787 248.971 47.879H114.91C111.19 47.8787 107.528 46.9637 104.245 45.2147C100.963 43.4656 98.1609 40.9361 96.0862 37.8491C94.0116 34.762 92.728 31.2122 92.3484 27.5122C91.9689 23.8122 92.5051 20.0756 93.9098 16.6317H65.3798C59.1105 16.6316 52.9026 17.8665 47.1105 20.2656C41.3184 22.6648 36.0555 26.1813 31.6225 30.6144C27.1894 35.0474 23.6729 40.3103 21.2737 46.1024C18.8745 51.8945 17.6397 58.1024 17.6396 64.3717V669.436C17.6396 675.706 18.8745 681.914 21.2737 687.706C23.6728 693.498 27.1894 698.761 31.6224 703.194C36.0555 707.627 41.3184 711.143 47.1105 713.543C52.9026 715.942 59.1105 717.177 65.3798 717.177H300.516C306.786 717.177 312.994 715.942 318.786 713.543C324.578 711.143 329.841 707.627 334.274 703.194C338.707 698.761 342.223 693.498 344.623 687.706C347.022 681.914 348.257 675.706 348.257 669.436V64.3717C348.257 58.1024 347.022 51.8945 344.623 46.1024C342.223 40.3103 338.707 35.0474 334.274 30.6144C329.841 26.1813 324.578 22.6648 318.786 20.2656C312.994 17.8665 306.786 16.6316 300.516 16.6317Z" fill="white"/>
<path d="M113.672 139.635H99.6328C99.1392 139.635 98.6657 139.831 98.3167 140.18C97.9676 140.529 97.7715 141.002 97.7715 141.496V147.658C97.7715 148.152 97.9676 148.625 98.3167 148.974C98.6657 149.324 99.1392 149.52 99.6328 149.52H101.959V158.753H111.346V149.52H113.672C114.166 149.52 114.639 149.324 114.988 148.974C115.337 148.625 115.533 148.152 115.533 147.658V141.496C115.533 141.002 115.337 140.529 114.988 140.18C114.639 139.831 114.166 139.635 113.672 139.635Z" fill="#E6E6E6"/>
<path d="M127.734 196.032C119.136 183.45 114.74 168.47 115.177 153.238C115.185 152.887 115.071 152.543 114.854 152.266C114.638 151.989 114.332 151.796 113.989 151.719V149.056H99.1615V151.682H98.9572C98.5537 151.682 98.167 151.843 97.882 152.129C97.5971 152.415 97.4373 152.802 97.4378 153.205C97.4378 153.242 97.4392 153.279 97.442 153.316C98.6101 169.599 94.6656 184.202 85.6086 197.124C85.0874 197.866 84.8211 198.758 84.8497 199.665L86.471 249.816C86.51 250.935 86.9795 251.995 87.7815 252.776C88.5835 253.556 89.6561 253.997 90.7754 254.006H124.313C125.445 253.997 126.528 253.546 127.333 252.75C128.137 251.953 128.599 250.874 128.62 249.742L129.244 201.049C129.263 199.262 128.736 197.512 127.734 196.032Z" fill="#E6E6E6"/>
<path d="M122.425 212.69H93.2334C92.8013 212.69 92.3743 212.784 91.9816 212.964C91.589 213.145 91.2401 213.408 90.9587 213.736C90.6773 214.064 90.4702 214.449 90.3516 214.864C90.2329 215.28 90.2055 215.716 90.2712 216.143L94.6824 244.816H120.012L125.371 216.24C125.452 215.807 125.437 215.361 125.326 214.935C125.216 214.509 125.012 214.112 124.731 213.773C124.45 213.434 124.097 213.162 123.699 212.975C123.3 212.787 122.865 212.69 122.425 212.69Z" fill="white"/>
<path d="M269.956 289.869H255.917C255.423 289.869 254.95 290.065 254.601 290.414C254.252 290.763 254.056 291.237 254.056 291.731V297.893C254.056 298.386 254.252 298.86 254.601 299.209C254.95 299.558 255.423 299.754 255.917 299.754H258.243V308.987H267.63V299.754H269.956C270.45 299.754 270.923 299.558 271.272 299.209C271.621 298.86 271.818 298.386 271.818 297.893V291.731C271.818 291.237 271.621 290.763 271.272 290.414C270.923 290.065 270.45 289.869 269.956 289.869Z" fill="#E6E6E6"/>
<path d="M284.018 346.266C275.42 333.685 271.024 318.705 271.461 303.473C271.469 303.121 271.355 302.778 271.138 302.501C270.922 302.224 270.616 302.031 270.273 301.954V299.291H255.446V301.917H255.241C255.042 301.917 254.844 301.956 254.659 302.033C254.475 302.11 254.307 302.222 254.166 302.364C254.025 302.505 253.913 302.673 253.837 302.858C253.761 303.042 253.722 303.24 253.722 303.44C253.722 303.477 253.723 303.514 253.726 303.551C254.894 319.834 250.95 334.437 241.893 347.358C241.372 348.101 241.105 348.993 241.134 349.899L242.755 400.051C242.794 401.169 243.264 402.23 244.066 403.01C244.868 403.791 245.94 404.232 247.06 404.241H280.597C281.729 404.232 282.812 403.781 283.617 402.984C284.421 402.188 284.883 401.109 284.904 399.977L285.528 351.284C285.547 349.497 285.02 347.746 284.018 346.266Z" fill="#E6E6E6"/>
<path d="M278.709 362.925H249.518C249.085 362.925 248.658 363.018 248.266 363.199C247.873 363.379 247.524 363.643 247.243 363.97C246.962 364.298 246.754 364.683 246.636 365.099C246.517 365.514 246.49 365.951 246.555 366.378L250.967 395.051H276.297L281.655 366.474C281.736 366.041 281.721 365.596 281.61 365.17C281.5 364.743 281.297 364.347 281.015 364.008C280.734 363.669 280.382 363.396 279.983 363.209C279.584 363.022 279.149 362.925 278.709 362.925Z" fill="white"/>
<path d="M93.935 502.257H87.2755C87.0413 502.257 86.8168 502.35 86.6512 502.515C86.4856 502.681 86.3926 502.906 86.3926 503.14V506.063C86.3926 506.297 86.4856 506.521 86.6512 506.687C86.8168 506.853 87.0413 506.946 87.2755 506.946H88.3791V511.325H92.8314V506.946H93.935C94.1691 506.946 94.3937 506.853 94.5593 506.687C94.7249 506.521 94.8179 506.297 94.8179 506.063V503.14C94.8179 502.906 94.7249 502.681 94.5593 502.515C94.3937 502.35 94.1691 502.257 93.935 502.257Z" fill="#E6E6E6"/>
<path d="M100.606 529.008C96.5271 523.041 94.4421 515.935 94.6493 508.71C94.653 508.543 94.5989 508.38 94.4962 508.249C94.3934 508.117 94.2484 508.026 94.0857 507.989V506.726H87.0524V507.971H86.9555C86.8607 507.972 86.7669 507.99 86.6794 508.027C86.5919 508.063 86.5124 508.116 86.4454 508.183C86.3785 508.251 86.3255 508.33 86.2893 508.418C86.2532 508.505 86.2346 508.599 86.2347 508.694C86.2347 508.712 86.2354 508.729 86.2367 508.747C86.8859 516.119 84.8968 523.483 80.6236 529.527C80.3764 529.879 80.2501 530.302 80.2637 530.732L81.0327 554.521C81.0512 555.051 81.2739 555.554 81.6543 555.925C82.0347 556.295 82.5435 556.504 83.0744 556.508H98.9827C99.5196 556.504 100.034 556.29 100.415 555.912C100.797 555.535 101.016 555.023 101.026 554.486L101.322 531.389C101.331 530.541 101.081 529.711 100.606 529.008Z" fill="#E6E6E6"/>
<path d="M98.3158 537.753H83.1367V545.343H98.3158V537.753Z" fill="white"/>
<path d="M124.935 502.257H118.276C118.041 502.257 117.817 502.35 117.651 502.515C117.486 502.681 117.393 502.906 117.393 503.14V506.063C117.393 506.297 117.486 506.521 117.651 506.687C117.817 506.853 118.041 506.946 118.276 506.946H119.379V511.325H123.831V506.946H124.935C125.169 506.946 125.394 506.853 125.559 506.687C125.725 506.521 125.818 506.297 125.818 506.063V503.14C125.818 502.906 125.725 502.681 125.559 502.515C125.394 502.35 125.169 502.257 124.935 502.257Z" fill="#E6E6E6"/>
<path d="M131.606 529.008C127.527 523.041 125.442 515.935 125.649 508.71C125.653 508.543 125.599 508.38 125.496 508.249C125.393 508.117 125.248 508.026 125.086 507.989V506.726H118.052V507.971H117.955C117.861 507.972 117.767 507.99 117.679 508.027C117.592 508.063 117.512 508.116 117.445 508.183C117.379 508.251 117.325 508.33 117.289 508.418C117.253 508.505 117.235 508.599 117.235 508.694C117.235 508.712 117.235 508.729 117.237 508.747C117.886 516.119 115.897 523.483 111.624 529.527C111.376 529.879 111.25 530.302 111.264 530.732L112.033 554.521C112.051 555.051 112.274 555.554 112.654 555.925C113.035 556.295 113.544 556.504 114.074 556.508H129.983C130.52 556.504 131.034 556.29 131.415 555.912C131.797 555.535 132.016 555.023 132.026 554.486L132.322 531.389C132.331 530.541 132.081 529.711 131.606 529.008Z" fill="#E6E6E6"/>
<path d="M129.316 537.753H114.137V545.343H129.316V537.753Z" fill="white"/>
<path d="M155.935 502.257H149.276C149.041 502.257 148.817 502.35 148.651 502.515C148.486 502.681 148.393 502.906 148.393 503.14V506.063C148.393 506.297 148.486 506.521 148.651 506.687C148.817 506.853 149.041 506.946 149.276 506.946H150.379V511.325H154.831V506.946H155.935C156.169 506.946 156.394 506.853 156.559 506.687C156.725 506.521 156.818 506.297 156.818 506.063V503.14C156.818 502.906 156.725 502.681 156.559 502.515C156.394 502.35 156.169 502.257 155.935 502.257Z" fill="#E6E6E6"/>
<path d="M162.606 529.008C158.527 523.041 156.442 515.935 156.649 508.71C156.653 508.543 156.599 508.38 156.496 508.249C156.393 508.117 156.248 508.026 156.086 507.989V506.726H149.052V507.971H148.955C148.861 507.972 148.767 507.99 148.679 508.027C148.592 508.063 148.512 508.116 148.445 508.183C148.379 508.251 148.325 508.33 148.289 508.418C148.253 508.505 148.235 508.599 148.235 508.694C148.235 508.712 148.235 508.729 148.237 508.747C148.886 516.119 146.897 523.483 142.624 529.527C142.376 529.879 142.25 530.302 142.264 530.732L143.033 554.521C143.051 555.051 143.274 555.554 143.654 555.925C144.035 556.295 144.544 556.504 145.074 556.508H160.983C161.52 556.504 162.034 556.29 162.415 555.912C162.797 555.535 163.016 555.023 163.026 554.486L163.322 531.389C163.331 530.541 163.081 529.711 162.606 529.008Z" fill="#E6E6E6"/>
<path d="M160.316 537.753H145.137V545.343H160.316V537.753Z" fill="white"/>
<path d="M245.568 444.137H231.528C231.284 444.137 231.042 444.185 230.816 444.279C230.59 444.372 230.385 444.509 230.212 444.682C230.039 444.855 229.902 445.06 229.809 445.286C229.715 445.512 229.667 445.754 229.667 445.998V452.161C229.667 452.654 229.863 453.128 230.212 453.477C230.561 453.826 231.035 454.022 231.528 454.022H233.855V463.255H243.241V454.022H245.568C246.061 454.022 246.535 453.826 246.884 453.477C247.233 453.128 247.429 452.654 247.429 452.161V445.998C247.429 445.754 247.381 445.512 247.287 445.286C247.194 445.06 247.057 444.855 246.884 444.682C246.711 444.509 246.506 444.372 246.28 444.279C246.054 444.185 245.812 444.137 245.568 444.137Z" fill="#E6E6E6"/>
<path d="M259.629 500.534C251.031 487.953 246.636 472.973 247.073 457.74C247.08 457.389 246.966 457.046 246.75 456.769C246.533 456.492 246.227 456.298 245.884 456.221V453.559H231.057V456.184H230.853C230.653 456.185 230.455 456.224 230.271 456.301C230.086 456.378 229.919 456.49 229.778 456.631C229.636 456.773 229.525 456.941 229.448 457.125C229.372 457.31 229.333 457.508 229.333 457.708C229.333 457.745 229.335 457.782 229.337 457.818C230.506 474.102 226.561 488.704 217.504 501.626C216.983 502.369 216.717 503.26 216.745 504.167L218.367 554.318C218.406 555.437 218.875 556.497 219.677 557.278C220.479 558.059 221.552 558.5 222.671 558.508H256.208C257.34 558.499 258.424 558.048 259.228 557.252C260.033 556.455 260.494 555.376 260.515 554.244L261.14 505.552C261.158 503.764 260.631 502.014 259.629 500.534Z" fill="#E6E6E6"/>
<path d="M254.32 517.193H225.129C224.697 517.193 224.27 517.286 223.877 517.466C223.485 517.647 223.136 517.91 222.854 518.238C222.573 518.566 222.366 518.951 222.247 519.367C222.128 519.782 222.101 520.218 222.167 520.645L226.578 549.319H251.908L257.266 520.742C257.347 520.309 257.332 519.864 257.222 519.438C257.111 519.011 256.908 518.615 256.627 518.276C256.345 517.937 255.993 517.664 255.594 517.477C255.196 517.29 254.761 517.193 254.32 517.193Z" fill="white"/>
<path d="M253.232 260.462H169.544C175.395 228.829 174.049 190.631 169.544 149.551H253.232C248.847 190.631 247.536 228.829 253.232 260.462Z" fill="#E6E6E6"/>
<path d="M211.892 222.148C223.029 222.148 232.058 213.119 232.058 201.982C232.058 190.845 223.029 181.816 211.892 181.816C200.755 181.816 191.727 190.845 191.727 201.982C191.727 213.119 200.755 222.148 211.892 222.148Z" fill="white"/>
<path d="M176.602 407.672H92.9141C98.765 376.039 97.4189 337.84 92.9141 296.761H176.602C172.217 337.841 170.906 376.039 176.602 407.672Z" fill="#E6E6E6"/>
<path d="M135.262 369.357C146.4 369.357 155.428 360.329 155.428 349.192C155.428 338.054 146.4 329.026 135.262 329.026C124.125 329.026 115.097 338.054 115.097 349.192C115.097 360.329 124.125 369.357 135.262 369.357Z" fill="white"/>
<path d="M300.621 267.52H216.934C222.785 235.887 221.438 197.689 216.934 156.609H300.621C296.236 197.689 294.926 235.887 300.621 267.52Z" fill="#E6E6E6"/>
<path d="M259.281 229.206C270.418 229.206 279.447 220.177 279.447 209.04C279.447 197.903 270.418 188.874 259.281 188.874C248.144 188.874 239.115 197.903 239.115 209.04C239.115 220.177 248.144 229.206 259.281 229.206Z" fill="white"/>
<path d="M300.621 262.479H216.934C222.785 230.846 221.438 192.647 216.934 151.568H300.621C296.236 192.647 294.926 230.846 300.621 262.479Z" fill="#E6E6E6"/>
<path d="M259.281 224.164C270.418 224.164 279.447 215.136 279.447 203.998C279.447 192.861 270.418 183.833 259.281 183.833C248.144 183.833 239.115 192.861 239.115 203.998C239.115 215.136 248.144 224.164 259.281 224.164Z" fill="white"/>
<path d="M300.621 267.52H216.934C222.785 235.887 221.438 197.689 216.934 156.609H300.621C296.236 197.689 294.926 235.887 300.621 267.52Z" fill="#E6E6E6"/>
<path d="M259.281 229.206C270.418 229.206 279.447 220.177 279.447 209.04C279.447 197.903 270.418 188.874 259.281 188.874C248.144 188.874 239.115 197.903 239.115 209.04C239.115 220.177 248.144 229.206 259.281 229.206Z" fill="white"/>
<path d="M319.778 254.413H45.5244V284.661H319.778V254.413Z" fill="#E6E6E6"/>
<path d="M319.778 404.647H45.5244V434.896H319.778V404.647Z" fill="#E6E6E6"/>
<path d="M319.778 554.882H45.5244V585.13H319.778V554.882Z" fill="#E6E6E6"/>
<path d="M796.854 677.599L728.529 629.273C751.573 606.826 772.532 574.862 792.575 538.722L860.9 587.048C833.598 618.054 810.471 648.484 796.854 677.599Z" fill="#6C63FF"/>
<path d="M796.874 626.148C808.011 626.148 817.039 617.119 817.039 605.982C817.039 594.845 808.011 585.816 796.874 585.816C785.737 585.816 776.708 594.845 776.708 605.982C776.708 617.119 785.737 626.148 796.874 626.148Z" fill="white"/>
<path d="M467.262 457.078H459.762C459.498 457.078 459.245 457.183 459.059 457.369C458.872 457.556 458.768 457.809 458.768 458.073V461.365C458.768 461.495 458.793 461.624 458.843 461.745C458.893 461.866 458.966 461.975 459.059 462.068C459.151 462.16 459.261 462.233 459.381 462.283C459.502 462.333 459.631 462.359 459.762 462.359H461.005V467.291H466.019V462.359H467.262C467.526 462.359 467.778 462.254 467.965 462.068C468.151 461.881 468.256 461.628 468.256 461.365V458.073C468.256 457.809 468.151 457.556 467.965 457.369C467.778 457.183 467.526 457.078 467.262 457.078Z" fill="#E6E6E6"/>
<path d="M474.775 487.206C470.181 480.485 467.833 472.483 468.067 464.345C468.071 464.158 468.01 463.974 467.894 463.826C467.779 463.678 467.615 463.575 467.432 463.534V462.111H459.511V463.514H459.402C459.295 463.514 459.189 463.535 459.091 463.576C458.992 463.617 458.903 463.677 458.827 463.753C458.752 463.828 458.692 463.918 458.652 464.017C458.611 464.115 458.59 464.221 458.59 464.328C458.59 464.348 458.591 464.367 458.592 464.387C459.323 472.69 457.083 480.984 452.271 487.79C451.992 488.186 451.85 488.663 451.865 489.147L452.731 515.939C452.752 516.536 453.003 517.103 453.432 517.52C453.86 517.937 454.433 518.172 455.031 518.177H472.947C473.552 518.172 474.131 517.931 474.56 517.506C474.99 517.08 475.237 516.504 475.248 515.899L475.582 489.887C475.591 488.932 475.31 487.997 474.775 487.206Z" fill="#6C63FF"/>
<path opacity="0.2" d="M465.699 458.151C465.699 458.72 465.473 459.265 465.07 459.668C464.668 460.07 464.122 460.296 463.553 460.296C462.985 460.296 462.439 460.07 462.037 459.668C461.634 459.265 461.408 458.72 461.408 458.151" fill="black"/>
<path d="M471.284 492.368H456.16V502.451H471.284V492.368Z" fill="white"/>
<path d="M704.603 561.742H690.563C690.07 561.742 689.596 561.938 689.247 562.287C688.898 562.636 688.702 563.109 688.702 563.603V569.765C688.702 570.259 688.898 570.733 689.247 571.082C689.596 571.431 690.07 571.627 690.563 571.627H692.89V580.86H702.276V571.627H704.603C705.096 571.627 705.57 571.431 705.919 571.082C706.268 570.733 706.464 570.259 706.464 569.765V563.603C706.464 563.109 706.268 562.636 705.919 562.287C705.57 561.938 705.096 561.742 704.603 561.742Z" fill="#E6E6E6"/>
<path d="M718.665 618.139C710.066 605.557 705.671 590.578 706.108 575.345C706.116 574.994 706.001 574.65 705.785 574.373C705.568 574.097 705.263 573.903 704.92 573.826V571.163H690.092V573.789H689.888C689.688 573.789 689.49 573.829 689.306 573.906C689.121 573.982 688.954 574.095 688.813 574.236C688.672 574.378 688.56 574.545 688.483 574.73C688.407 574.915 688.368 575.113 688.368 575.312C688.368 575.349 688.37 575.386 688.373 575.423C689.541 591.707 685.596 606.309 676.539 619.231C676.018 619.973 675.752 620.865 675.78 621.772L677.402 671.923C677.441 673.042 677.91 674.102 678.712 674.883C679.514 675.664 680.587 676.104 681.706 676.113H715.243C716.375 676.104 717.459 675.653 718.263 674.857C719.068 674.06 719.53 672.981 719.55 671.849L720.175 623.156C720.193 621.369 719.667 619.619 718.665 618.139Z" fill="#6C63FF"/>
<path opacity="0.2" d="M701.676 563.75C701.676 564.815 701.253 565.836 700.5 566.589C699.747 567.342 698.725 567.766 697.66 567.766C696.595 567.766 695.574 567.342 694.821 566.589C694.068 565.836 693.645 564.815 693.645 563.75" fill="black"/>
<path d="M713.356 634.797H684.164C683.732 634.797 683.305 634.891 682.912 635.071C682.52 635.252 682.171 635.515 681.889 635.843C681.608 636.171 681.401 636.556 681.282 636.971C681.164 637.387 681.136 637.823 681.202 638.25L685.613 666.923H710.943L716.301 638.347C716.382 637.914 716.367 637.469 716.257 637.042C716.146 636.616 715.943 636.219 715.662 635.881C715.381 635.542 715.028 635.269 714.63 635.082C714.231 634.895 713.796 634.797 713.356 634.797Z" fill="white"/>
<path d="M664.546 677.52H580.858C586.709 645.887 585.363 607.688 580.858 566.608H664.546C660.161 607.688 658.851 645.887 664.546 677.52Z" fill="#6C63FF"/>
<path d="M623.207 639.205C634.344 639.205 643.372 630.177 643.372 619.039C643.372 607.902 634.344 598.874 623.207 598.874C612.07 598.874 603.041 607.902 603.041 619.039C603.041 630.177 612.07 639.205 623.207 639.205Z" fill="white"/>
<path d="M322.243 328.466L341.03 326.758L352.986 297.724L331.637 285.768L322.243 328.466Z" fill="#FFB8B8"/>
<path d="M494.661 408.174C495.285 406.616 495.531 404.932 495.377 403.26C495.223 401.589 494.674 399.978 493.776 398.56C492.877 397.143 491.654 395.959 490.208 395.106C488.762 394.254 487.134 393.757 485.459 393.657L456.289 391.918L451.994 406.2L482.023 414.447C484.532 415.136 487.207 414.878 489.538 413.721C491.869 412.564 493.692 410.589 494.661 408.174Z" fill="#FFB8B8"/>
<path d="M463.339 414.687L463.018 387.887L398.225 377.549L348.31 320.301C345.713 317.323 342.124 315.386 338.209 314.851C334.294 314.315 330.317 315.217 327.016 317.389C325.017 318.704 323.331 320.442 322.078 322.481C320.825 324.519 320.034 326.807 319.763 329.184C319.491 331.562 319.745 333.969 320.507 336.238C321.268 338.506 322.518 340.579 324.169 342.311L365.349 392.989L463.339 414.687Z" fill="#575A89"/>
<path d="M307.726 716.167H324.805L367.168 524.633L411.055 583.802L436.674 711.897H452.9L449.484 574.408L392.268 427.526H335.906C320.504 455.401 308.422 484.135 322.243 513.777L307.726 716.167Z" fill="#2F2E41"/>
<path d="M426.205 727.8C426.016 728.405 425.958 729.042 426.035 729.671C426.112 730.299 426.321 730.904 426.65 731.445C426.979 731.986 427.419 732.451 427.942 732.808C428.464 733.166 429.057 733.408 429.68 733.519L471.474 740.935C473.125 741.237 474.83 740.925 476.267 740.057C477.704 739.189 478.774 737.825 479.274 736.222C479.762 734.691 479.694 733.037 479.082 731.551C478.471 730.065 477.356 728.842 475.932 728.096C466.743 723.378 458.834 716.502 452.884 708.058C448.291 712.335 443.157 711.933 437.705 708.781L431.922 709.504L426.205 727.8Z" fill="#2F2E41"/>
<path d="M299.817 727.8C299.628 728.405 299.57 729.042 299.647 729.671C299.724 730.299 299.934 730.904 300.263 731.445C300.591 731.986 301.032 732.451 301.554 732.808C302.077 733.166 302.669 733.408 303.293 733.519L345.086 740.935C346.737 741.237 348.442 740.925 349.879 740.057C351.316 739.189 352.386 737.825 352.887 736.222C353.374 734.691 353.306 733.037 352.695 731.551C352.083 730.065 350.968 728.842 349.545 728.096C340.355 723.378 332.446 716.502 326.496 708.058C321.903 712.335 316.769 711.933 311.317 708.781L305.535 709.504L299.817 727.8Z" fill="#2F2E41"/>
<path d="M353.413 308.398C366.619 308.398 377.324 297.693 377.324 284.487C377.324 271.281 366.619 260.576 353.413 260.576C340.207 260.576 329.502 271.281 329.502 284.487C329.502 297.693 340.207 308.398 353.413 308.398Z" fill="#FFB8B8"/>
<path d="M332.064 433.931L394.403 432.223L376.095 374.604C387.473 356.364 376.022 338.144 359.818 319.927L347.008 311.387L326.513 309.679C317.639 319.174 312.784 331.735 312.964 344.729C313.37 372.556 318.297 402.848 332.064 433.931Z" fill="#575A89"/>
<path d="M475.292 472.716C476.479 471.529 477.367 470.077 477.883 468.48C478.399 466.883 478.528 465.186 478.26 463.529C477.991 461.872 477.333 460.303 476.339 458.95C475.345 457.598 474.044 456.501 472.542 455.75L446.409 442.675L436.842 454.116L461.205 473.511C463.241 475.132 465.802 475.947 468.4 475.8C470.998 475.653 473.451 474.555 475.292 472.716Z" fill="#FFB8B8"/>
<path d="M443.933 466.382L454.18 441.617L398.679 406.623L375.308 334.355C374.093 330.595 371.555 327.403 368.166 325.371C364.777 323.338 360.766 322.603 356.877 323.301C354.522 323.724 352.288 324.658 350.334 326.039C348.38 327.42 346.753 329.213 345.568 331.292C344.384 333.371 343.67 335.684 343.478 338.069C343.285 340.454 343.619 342.852 344.456 345.094L362.379 407.885L443.933 466.382Z" fill="#575A89"/>
<path d="M314.13 275.093C314.13 284.397 320.172 298.806 327.793 304.982C332.921 309.138 339.698 308.963 342.311 303.274C344.991 297.439 354.23 283.722 370.492 275.093C392.169 263.591 362.804 243.912 342.311 246.913C326.911 249.167 314.13 259.53 314.13 275.093Z" fill="#2F2E41"/>
<path d="M328.648 262.284C338.08 262.284 345.727 254.637 345.727 245.205C345.727 235.772 338.08 228.125 328.648 228.125C319.215 228.125 311.568 235.772 311.568 245.205C311.568 254.637 319.215 262.284 328.648 262.284Z" fill="#2F2E41"/>
<path d="M348.289 239.227C348.287 234.921 346.658 230.775 343.728 227.62C340.798 224.464 336.784 222.533 332.49 222.212C332.915 222.181 333.339 222.148 333.771 222.148C338.301 222.148 342.645 223.947 345.848 227.15C349.051 230.353 350.85 234.697 350.85 239.227C350.85 243.757 349.051 248.101 345.848 251.304C342.645 254.507 338.301 256.306 333.771 256.306C333.339 256.306 332.915 256.273 332.49 256.242C336.784 255.921 340.798 253.99 343.728 250.834C346.658 247.679 348.287 243.533 348.289 239.227Z" fill="#2F2E41"/>
<path d="M353.84 293.027C355.962 293.027 357.683 290.733 357.683 287.903C357.683 285.073 355.962 282.779 353.84 282.779C351.718 282.779 349.997 285.073 349.997 287.903C349.997 290.733 351.718 293.027 353.84 293.027Z" fill="#FFB8B8"/>
<path d="M837.751 684.845H571.879L515.578 418.694H467.529V406.752H525.258L581.559 672.902H837.751V684.845Z" fill="#3F3D56"/>
<path d="M610.841 733.468C624.975 733.468 636.433 722.01 636.433 707.877C636.433 693.743 624.975 682.285 610.841 682.285C596.708 682.285 585.25 693.743 585.25 707.877C585.25 722.01 596.708 733.468 610.841 733.468Z" fill="#3F3D56"/>
<path d="M801.923 733.468C816.057 733.468 827.515 722.01 827.515 707.877C827.515 693.743 816.057 682.285 801.923 682.285C787.79 682.285 776.332 693.743 776.332 707.877C776.332 722.01 787.79 733.468 801.923 733.468Z" fill="#3F3D56"/>
<path d="M832.904 679.221H574.225L528.584 453.669H875.735C877.507 453.669 879.257 454.053 880.866 454.794C882.475 455.535 883.904 456.616 885.056 457.963C886.207 459.309 887.053 460.888 887.536 462.593C888.018 464.297 888.126 466.086 887.851 467.836L845.018 668.861C844.576 671.753 843.11 674.39 840.886 676.292C838.662 678.194 835.83 679.233 832.904 679.221ZM577.034 675.809H832.904C835.015 675.818 837.06 675.067 838.665 673.695C840.269 672.322 841.327 670.419 841.646 668.331L884.479 467.306C884.678 466.043 884.6 464.752 884.252 463.522C883.904 462.291 883.293 461.151 882.463 460.18C881.632 459.208 880.6 458.428 879.439 457.893C878.277 457.358 877.014 457.081 875.735 457.081H532.726L577.034 675.809Z" fill="#3F3D56"/>
<path d="M624.513 678.499L594.623 455.653L597.989 455.097L627.879 677.943L624.513 678.499Z" fill="#3F3D56"/>
<path d="M790.712 676.788L787.343 676.242L816.36 455.102L819.729 455.648L790.712 676.788Z" fill="#3F3D56"/>
<path d="M711.527 455.375H708.115V678.221H711.527V455.375Z" fill="#3F3D56"/>
<path d="M546.014 515.088L546.006 518.501L876.301 519.3L876.309 515.888L546.014 515.088Z" fill="#3F3D56"/>
<path d="M853 620.494L562.829 622.478L562.852 625.89L853.024 623.906L853 620.494Z" fill="#3F3D56"/>
<path d="M472.648 421.253C483.013 421.253 491.415 416.67 491.415 411.017C491.415 405.363 483.013 400.78 472.648 400.78C462.283 400.78 453.881 405.363 453.881 411.017C453.881 416.67 462.283 421.253 472.648 421.253Z" fill="#3F3D56"/>
</g>
<defs>
<clipPath id="clip0_167_126">
<rect width="888" height="741.048" fill="white"/>
</clipPath>
</defs>
</svg>
